<?xml version="1.0" encoding="utf-8"?>
<!-- Generator: Adobe Illustrator 24.2.1, SVG Export Plug-In . SVG Version: 6.00 Build 0)  -->
<svg version="1.1" id="Layer_1" xmlns="http://www.w3.org/2000/svg" xmlns:xlink="http://www.w3.org/1999/xlink" x="0px" y="0px"
	 viewBox="0 0 137.9 52" style="enable-background:new 0 0 137.9 52;" xml:space="preserve">
<style type="text/css">
	.st0{fill:url(#Ellipse_1_1_);}
	.st1{fill:#FFFFFF;}
</style>
<g>
	
		<linearGradient id="Ellipse_1_1_" gradientUnits="userSpaceOnUse" x1="268.9856" y1="195.3708" x2="268.9856" y2="194.8708" gradientTransform="matrix(52 0 0 -52 -13961.25 10159.2793)">
		<stop  offset="0" style="stop-color:#FFD50B"/>
		<stop  offset="1" style="stop-color:#FF9E00"/>
	</linearGradient>
	<circle id="Ellipse_1" class="st0" cx="26" cy="26" r="26"/>
	<path id="Path_55" class="st1" d="M38.8,19.1v4.1h-5.8v17.1h-5.2V23.2h-5.7v-4.1H38.8z M46.1,26.7c0.6-1,1.5-1.8,2.5-2.4
		c1-0.6,2.1-0.9,3.3-0.9l0.1,2.7l-0.2,2.7h-1.4c-1.1-0.1-2.2,0.2-3.2,0.9c-0.8,0.7-1.2,1.8-1.1,2.9v7.6H41V23.6h5.1V26.7z
		 M60.4,23.3c1.2,0,2.3,0.3,3.3,0.9c0.9,0.6,1.6,1.4,2,2.4v-3h5.1v16.7h-5.1v-3c-0.4,1-1.1,1.8-2,2.4c-1,0.6-2.1,0.9-3.3,0.9
		c-1.3,0-2.6-0.3-3.7-1c-1.1-0.7-2-1.8-2.6-3c-0.7-1.4-1-3-0.9-4.6c0-1.6,0.3-3.1,0.9-4.6c0.6-1.2,1.5-2.2,2.6-3
		C57.8,23.7,59.1,23.3,60.4,23.3z M62.1,27.8c-1,0-2,0.4-2.7,1.1c-0.7,0.8-1.1,1.9-1,3c-0.1,1.1,0.3,2.2,1,3
		c0.7,0.7,1.7,1.1,2.7,1.1c1,0,2-0.4,2.7-1.1c0.7-0.8,1.1-1.9,1-3c0.1-1.1-0.3-2.2-1-3C64,28.2,63.1,27.8,62.1,27.8z M82.1,35.3
		l3.6-11.7h5.5l-5.9,16.7h-6.4L73,23.6h5.5L82.1,35.3z M109.3,31.5c0,0.5-0.1,0.9-0.2,1.4H97.5c0,1,0.3,2,1,2.7
		c0.6,0.6,1.4,0.9,2.2,0.8c0.7,0,1.3-0.2,1.9-0.6c0.5-0.4,0.8-0.9,1-1.5h5.4c-0.2,1.2-0.7,2.2-1.4,3.2c-0.8,0.9-1.7,1.7-2.8,2.2
		c-1.2,0.5-2.5,0.8-3.8,0.8c-1.5,0-3-0.3-4.4-1c-1.3-0.7-2.3-1.7-3-3c-0.7-1.4-1.1-3-1.1-4.6c0-1.6,0.3-3.2,1.1-4.6
		c0.7-1.3,1.7-2.3,3-3c1.4-0.7,2.9-1.1,4.4-1c1.5,0,3,0.3,4.4,1c1.2,0.7,2.2,1.6,2.9,2.9C108.9,28.5,109.3,30,109.3,31.5z
		 M104.1,30.7c0.1-0.9-0.2-1.8-0.9-2.5c-0.6-0.6-1.4-0.8-2.3-0.8c-0.9,0-1.7,0.3-2.3,0.8c-0.7,0.6-1,1.5-1.1,2.5H104.1z M117.1,18.1
		v22.2h-5.1V18.1H117.1z M124.5,23.6l4,10.3l3.8-10.3h5.7l-10.4,24.7h-5.6l3.9-8.6l-7-16.1L124.5,23.6z"/>
</g>
</svg>
